<svg id="Capa_1" enable-background="new 0 0 512 512" height="512" viewBox="0 0 512 512" width="512" xmlns="http://www.w3.org/2000/svg"><g><path d="m36.708 388.16c-22.915-37.94-36.261-82.307-36.697-129.76-1.297-141.28 114.704-258.4 255.99-258.4 141.384 0 255.999 114.616 255.999 256 0 43.866-11.033 85.155-30.475 121.243-3.643 6.762-10.767 10.917-18.447 10.917z" fill="#86befb"/><path d="m350 190v80c0 5.523-4.477 10-10 10h-60c-5.523 0-10-4.477-10-10v-80c0-5.523 4.477-10 10-10h60c5.523 0 10 4.477 10 10z" fill="#2476ed"/><path d="m300 50v283.468h-280v-123.468l50-160z" fill="#fff36c"/><path d="m56.766 210v123.468h-36.766v-123.468l50-160h36.766z" fill="#fff04a"/><path d="m481.856 376.627c-43.12 80.566-128.087 135.373-225.856 135.373s-182.736-54.807-225.856-135.373z" fill="#c9885b"/><path d="m356.5 422h-75.213c-4.142 0-7.5-3.358-7.5-7.5 0-4.142 3.358-7.5 7.5-7.5h75.213c4.142 0 7.5 3.358 7.5 7.5 0 4.142-3.358 7.5-7.5 7.5zm-60.606 22.313c0-4.142-3.358-7.5-7.5-7.5h-48.165c-4.142 0-7.5 3.358-7.5 7.5 0 4.142 3.358 7.5 7.5 7.5h48.165c4.142 0 7.5-3.357 7.5-7.5zm57.759 27.932c0-4.142-3.358-7.5-7.5-7.5h-23.1c-4.142 0-7.5 3.358-7.5 7.5 0 4.142 3.358 7.5 7.5 7.5h23.1c4.142 0 7.5-3.358 7.5-7.5z" fill="#b56d3c"/><path d="m512 180v138.468c0 8.284-6.716 15-15 15h-162c-8.284 0-15-6.716-15-15v-213.617c0-8.284 6.716-15 15-15h55c22.27 0 41.706 12.133 52.059 30.149h9.941c33.137 0 60 26.863 60 60z" fill="#e9f3fe"/><path d="m364 333.468h-29c-8.284 0-15-6.716-15-15v-213.617c0-8.284 6.716-15 15-15h29c-8.284 0-15 6.716-15 15v213.617c0 8.284 6.716 15 15 15z" fill="#c8e2fd"/><path d="m512 240h-97c-8.284 0-15-6.716-15-15v-90c0-8.284 6.716-15 15-15h37c33.137 0 60 26.863 60 60z" fill="#2476ed"/><path d="m433.383 240h-18.383c-8.284 0-15-6.716-15-15v-90c0-8.284 6.716-15 15-15h18.383c-8.284 0-15 6.716-15 15v90c0 8.284 6.716 15 15 15z" fill="#0a66ea"/><path d="m300 60h-230c-5.523 0-10-4.477-10-10 0-5.523 4.477-10 10-10h230c5.523 0 10 4.477 10 10 0 5.523-4.477 10-10 10zm10 270c0-5.523-4.477-10-10-10h-280c-5.523 0-10 4.477-10 10 0 5.523 4.477 10 10 10h280c5.523 0 10-4.477 10-10zm-40-240v200c0 5.523-4.477 10-10 10h-10c-5.523 0-10-4.477-10-10v-200c0-5.523 4.477-10 10-10h10c5.523 0 10 4.477 10 10zm-63.333-10h-10c-5.523 0-10 4.477-10 10v200c0 5.523 4.477 10 10 10h10c5.523 0 10-4.477 10-10v-200c0-5.523-4.477-10-10-10zm-53.334 0h-10c-5.523 0-10 4.477-10 10v200c0 5.523 4.477 10 10 10h10c5.523 0 10-4.477 10-10v-200c0-5.523-4.477-10-10-10zm-53.333 30h-10c-5.523 0-10 4.477-10 10v170c0 5.523 4.477 10 10 10h10c5.523 0 10-4.477 10-10v-170c0-5.523-4.477-10-10-10z" fill="#ffc14f"/><path d="m450 340c0 33.137-26.863 60-60 60s-60-26.863-60-60 26.863-60 60-60 60 26.863 60 60zm-270-60c-33.137 0-60 26.863-60 60s26.863 60 60 60 60-26.863 60-60-26.863-60-60-60z" fill="#0a4499"/><path d="m420 340c0 16.568-13.431 30-30 30s-30-13.432-30-30 13.431-30 30-30 30 13.432 30 30zm-240-30c-16.569 0-30 13.432-30 30s13.431 30 30 30 30-13.432 30-30-13.431-30-30-30z" fill="#2476ed"/><path d="m210 340c0 4.222-.872 8.239-2.446 11.883-3.644 1.574-7.662 2.446-11.884 2.446-16.569 0-30-13.432-30-30 0-4.222.872-8.239 2.446-11.883 3.644-1.573 7.662-2.446 11.884-2.446 16.569 0 30 13.432 30 30zm180-30c-4.222 0-8.24.873-11.884 2.446-1.574 3.644-2.446 7.662-2.446 11.883 0 16.568 13.431 30 30 30 4.222 0 8.24-.873 11.884-2.446 1.574-3.644 2.446-7.661 2.446-11.883 0-16.568-13.431-30-30-30z" fill="#5596fb"/><path d="m119.498 414.583c-27.337 27.337-71.658 27.337-98.995 0-27.337-27.336-27.337-71.658 0-98.995l33.449-33.449c-12.29-4.693-21.996-14.619-26.391-27.054h84.879c-4.395 12.435-14.1 22.361-26.391 27.054l33.449 33.449c27.336 27.336 27.336 71.658 0 98.995z" fill="#169b62"/><path d="m82.5 433.966c-21.813 3.939-45.136-2.522-61.997-19.384-27.337-27.336-27.337-71.658 0-98.995l33.449-33.449c-12.29-4.693-21.996-14.619-26.391-27.054h25c3.026 8.561 8.569 15.933 15.739 21.227 4.991 3.685 5.534 10.945 1.146 15.332l-23.944 23.944c-27.337 27.336-27.337 71.658 0 98.995 10.476 10.476 23.446 16.938 36.998 19.384z" fill="#127d4f"/><path d="m192.923 491.498c-27.337 27.336-71.658 27.336-98.995 0-27.337-27.337-27.337-71.658 0-98.995l33.449-33.449c-12.29-4.693-21.996-14.619-26.391-27.054h84.879c-4.395 12.435-14.1 22.361-26.391 27.054l33.449 33.449c27.337 27.336 27.337 71.658 0 98.995z" fill="#1ed688"/><path d="m154.046 511.194c-21.266 3.247-43.74-3.318-60.118-19.696-27.337-27.337-27.337-71.658 0-98.995l33.449-33.449c-12.29-4.693-21.996-14.619-26.391-27.054h21.242c3.08 8.714 8.768 16.197 16.127 21.51 4.825 3.483 5.306 10.501 1.098 14.709l-24.283 24.283c-27.337 27.337-27.337 71.658 0 98.995 10.959 10.96 24.647 17.524 38.876 19.697z" fill="#1ab975"/><path d="m135.103 457.245c0 4.143-3.358 7.5-7.5 7.5h-11.663c-5.045 0-9.63-2.778-11.966-7.25s-1.997-9.822.885-13.962l7.751-11.136c2.367-3.4 7.041-4.237 10.44-1.871s4.237 7.04 1.871 10.439l-6.111 8.779h8.792c4.143.001 7.501 3.359 7.501 7.501zm46.888-13.712-4.561-6.554c-2.365-3.4-7.041-4.235-10.44-1.872-3.4 2.366-4.238 7.041-1.872 10.44l2.921 4.197h-16.437c-4.142 0-7.5 3.357-7.5 7.5s3.358 7.5 7.5 7.5h19.309c5.045 0 9.63-2.778 11.966-7.25s1.996-9.821-.886-13.961zm-24.818-15.038c1.479 0 2.973-.437 4.278-1.346 3.399-2.366 4.237-7.04 1.871-10.439l-8.816-12.667c-2.522-3.624-6.665-5.788-11.081-5.788s-8.558 2.164-11.08 5.788l-5.102 7.33c-2.366 3.399-1.528 8.073 1.871 10.439 3.401 2.368 8.074 1.529 10.44-1.871l3.871-5.561 7.585 10.897c1.458 2.096 3.791 3.218 6.163 3.218z" fill="#e9f3fe"/></g></svg>