<svg id="Capa_1" enable-background="new 0 0 512 512" height="512" viewBox="0 0 512 512" width="512" xmlns="http://www.w3.org/2000/svg"><g><path d="m129.596 149c-49.494 0-71.708-62.486-32.999-93.328 43.734-34.847 99.137-55.672 159.403-55.672 69.342 0 132.246 27.57 178.346 72.346 28.742 27.917 8.886 76.654-31.182 76.654z" fill="#a7d0fc"/><path d="m282 111c0 5.523-4.477 10-10 10h-32c-5.523 0-10-4.477-10-10s4.477-10 10-10h6v-22c0-5.523 4.477-10 10-10s10 4.477 10 10v22h6c5.523 0 10 4.477 10 10zm128.684-59h-5.684c-5.523 0-10 4.477-10 10s4.477 10 10 10h28.989c-7.357-7.118-15.139-13.798-23.305-20zm-303.684 0h-5.684c-8.166 6.202-15.948 12.882-23.305 20h28.989c5.523 0 10-4.477 10-10s-4.477-10-10-10z" fill="#76b6fa"/><path d="m512 256c0 50.957-14.888 98.437-40.552 138.327-15.939 24.772-43.445 39.673-72.902 39.673h-137.032v-216c0-80.633 65.366-146 146-146h26.475c12.554 12.146 23.868 25.565 33.735 40.049 2.461 3.612-7.168 12.291-4.891 16.033 4.568 7.505 8.761 15.263 12.553 23.249 1.642 3.458 15.208 1.959 16.698 5.5 12.827 30.499 19.916 64.006 19.916 99.169z" fill="#fff36c"/><path d="m436.296 74.261c-68.361 12.156-120.268 71.885-120.268 143.739v216h-54.514v-216c0-80.633 65.366-146 146-146h26.475c.774.749 1.543 1.503 2.307 2.261z" fill="#fff04a"/><path d="m255 392h217.927c-12.045 19.172-26.562 36.634-43.102 51.94-13.984 12.939-32.377 20.06-51.429 20.06h-123.396c-5.523 0-10-4.477-10-10v-52c0-5.523 4.477-10 10-10zm5-170h249.762c-.896-6.753-2.055-13.424-3.468-20h-246.294c-5.523 0-10 4.477-10 10s4.477 10 10 10z" fill="#ffc14f"/><path d="m250.486 218v216h-138.919c-27.817 0-53.928-13.794-69.269-36.998-26.734-40.435-42.298-88.901-42.298-141.002 0-35.163 7.089-68.67 19.917-99.17 1.424-3.386 13.918 1.266 15.482-2.044 4.795-10.15 10.237-19.934 16.274-29.299 1.179-1.829-8.62-11.642-7.396-13.438 9.866-14.484 21.181-27.903 33.734-40.049h26.475c80.634 0 146 65.366 146 146z" fill="#1ed688"/><path d="m252 222h-249.762c.896-6.753 2.055-13.424 3.468-20h246.294c5.523 0 10 4.477 10 10s-4.477 10-10 10zm5 170h-217.927c12.286 19.556 27.144 37.333 44.098 52.857 13.41 12.278 30.898 19.143 49.079 19.143h124.75c5.523 0 10-4.477 10-10v-52c0-5.523-4.477-10-10-10z" fill="#1ab975"/><path d="m466 172h-90c-16.569 0-30-13.431-30-30 0-16.568 13.431-30 30-30h90c.579 0 1.153.017 1.724.049 9.534 13.995 17.716 28.985 24.36 44.781-5.163 9.061-14.91 15.17-26.084 15.17zm-330-60h-90c-.579 0-1.153.017-1.724.049-9.534 13.995-17.716 28.985-24.36 44.781 5.163 9.061 14.91 15.17 26.084 15.17h90c16.569 0 30-13.431 30-30 0-16.569-13.431-30-30-30z" fill="#0a3575"/><path d="m415.486 266v184h-318.972v-184c0-80.633 65.366-146 146-146h26.972c80.634 0 146 65.366 146 146z" fill="#2476ed"/><path d="m283.257 120.641c-74.175 6.94-132.229 69.37-132.229 145.359v184h-54.514v-184c0-80.633 65.366-146 146-146h26.972c4.644 0 9.238.217 13.771.641z" fill="#0a66ea"/><path d="m429.901 443.87c-45.66 42.284-106.762 68.13-173.901 68.13s-128.241-25.846-173.901-68.13c1.83-2.355 4.688-3.87 7.901-3.87h332c3.213 0 6.071 1.515 7.901 3.87z" fill="#0a66ea"/><path d="m427 260c0 5.523-4.477 10-10 10h-322c-5.523 0-10-4.477-10-10s4.477-10 10-10h322c5.523 0 10 4.477 10 10zm-276 180h-61c-3.213 0-6.071 1.515-7.901 3.87 20.213 18.719 43.451 34.215 68.901 45.675z" fill="#0956c6"/><path d="m301 220h-90c-16.569 0-30-13.431-30-30 0-16.569 13.431-30 30-30h90c16.569 0 30 13.431 30 30 0 16.569-13.431 30-30 30z" fill="#0a3575"/><path d="m222.392 86.529c.659 2.461-.044 5.087-1.846 6.889l-2.128 2.128c-1.802 1.802-4.428 2.505-6.889 1.846l-2.907-.779c-2.461-.659-4.384-2.582-5.043-5.043l-.779-2.907c-.659-2.461.044-5.088 1.846-6.889l2.128-2.128c1.802-1.802 4.428-2.505 6.889-1.846l2.907.779c2.461.66 4.384 2.582 5.043 5.043zm48.221-80.464c-.66-2.461-2.582-4.384-5.043-5.043l-2.907-.779c-2.461-.659-5.088.044-6.889 1.846l-2.128 2.128c-1.802 1.802-2.506 4.428-1.846 6.889l.779 2.907c.659 2.461 2.582 4.384 5.043 5.043l2.907.779c2.461.659 5.087-.044 6.889-1.846l2.128-2.128c1.802-1.802 2.505-4.428 1.846-6.889zm28.779 42.464-.779-2.907c-.66-2.461-2.582-4.384-5.043-5.043l-2.907-.779c-2.461-.659-5.088.044-6.889 1.846l-2.128 2.128c-1.802 1.802-2.506 4.428-1.846 6.889l.779 2.907c.659 2.461 2.582 4.384 5.043 5.043l2.907.779c2.461.659 5.087-.044 6.889-1.846l2.128-2.128c1.802-1.802 2.506-4.428 1.846-6.889z" fill="#0a3575"/><path d="m257.91 169.178c.925 3.451-.062 7.133-2.588 9.659l-16.13 16.13c-2.526 2.526-6.208 3.513-9.659 2.588l-22.033-5.904c-3.451-.925-6.146-3.62-7.071-7.071l-5.904-22.033c-.925-3.451.062-7.133 2.588-9.659l16.13-16.13c2.526-2.526 6.208-3.513 9.659-2.588l22.033 5.904c3.451.925 6.146 3.62 7.071 7.071zm58.542-51.573-3.589-13.396c-.925-3.451-3.62-6.146-7.071-7.071l-13.396-3.589c-3.451-.925-7.133.062-9.659 2.588l-9.807 9.807c-2.526 2.526-3.513 6.208-2.588 9.659l3.59 13.396c.925 3.451 3.62 6.146 7.071 7.071l13.396 3.589c3.451.925 7.133-.062 9.659-2.588l9.807-9.807c2.525-2.526 3.512-6.208 2.587-9.659zm-111.714-69.414c.925 3.451 3.62 6.146 7.071 7.071l9.008 2.414c3.451.925 7.133-.062 9.659-2.588l6.594-6.594c2.526-2.526 3.513-6.208 2.588-9.659l-2.414-9.008c-.925-3.451-3.62-6.146-7.071-7.071l-9.008-2.414c-3.451-.925-7.133.062-9.659 2.588l-6.594 6.594c-2.526 2.526-3.513 6.208-2.588 9.659z" fill="#ffd993"/><path d="m257.91 169.178c.925 3.451-.062 7.133-2.588 9.659l-16.13 16.13c-2.526 2.526-6.208 3.513-9.659 2.588l-4.533-1.214 6-19.341-16-21 10-21.268 19.935 5.341c3.451.925 6.146 3.62 7.071 7.071zm58.542-51.573-3.589-13.396c-.925-3.451-3.62-6.146-7.071-7.071l-13.396-3.589c-.131-.035-.263-.067-.395-.097l-10.001 24.548 10 21.017 2.398.642c3.451.925 7.133-.062 9.659-2.588l9.807-9.807c2.526-2.526 3.513-6.208 2.588-9.659zm-95.635-59.929c3.451.925 7.133-.062 9.659-2.588l6.594-6.594c2.526-2.526 3.513-6.208 2.588-9.659l-2.414-9.008c-.925-3.451-3.62-6.146-7.071-7.071l-9.008-2.414c-.386-.104-.776-.183-1.166-.239l-6.999 16.897 7 20.457z" fill="#ffe7c0"/><path d="m239.371 319.158c-2.633-2.633-2.936-6.799-.71-9.785l2.308-3.096c3.405-4.57 8.667-7.151 14.388-7.039 5.519.108 10.629 2.951 13.927 7.376l23.482 31.507 8.011-6.194c1.322-1.022 3.241-.068 3.223 1.603l-.308 28.973c-.014 1.291-1.229 2.231-2.483 1.92l-28.118-6.995c-1.622-.404-2.063-2.501-.741-3.523l8.546-6.607-23.892-32.057c-.652-.875-1.536-1.006-2.005-1.006s-1.352.131-2.004 1.006l-2.308 3.097c-2.732 3.665-8.082 4.054-11.316.82zm87.518 64.749-5.985-8.031c-2.624-3.52-7.696-4.044-10.984-1.135-2.919 2.583-3.373 6.973-1.043 10.098l5.985 8.031c.802 1.076.488 2.101.23 2.615-.259.515-.893 1.378-2.234 1.378h-48.899v-10.83c0-1.672-1.929-2.606-3.24-1.569l-22.733 17.966c-1.013.801-1.013 2.338 0 3.138l22.733 17.966c1.312 1.036 3.24.102 3.24-1.569v-10.102h48.461c6.427 0 12.526-3.294 15.677-8.895 3.435-6.106 2.941-13.494-1.208-19.061zm-96.755-52.668-28.074 7.168c-1.619.414-2.047 2.513-.719 3.528l8.319 6.35-26.549 35.622c-4.149 5.568-4.643 12.956-1.208 19.062 3.151 5.601 9.25 8.895 15.677 8.895h19.92c4.142 0 7.5-3.358 7.5-7.5 0-4.142-3.358-7.5-7.5-7.5h-20.357c-1.342 0-1.976-.864-2.234-1.378-.258-.515-.571-1.539.23-2.615l26.445-35.483 8.318 6.35c1.329 1.014 3.241.048 3.213-1.623l-.487-28.971c-.021-1.292-1.242-2.225-2.494-1.905z" fill="#fff"/></g></svg>